HIERARCHY
ROOT Hips
{
	OFFSET 0.000000 0.000000 0.000000
	CHANNELS 6 Xposition Yposition Zposition Zrotation Xrotation Yrotation
	JOINT Spine
	{
		OFFSET 2.861115 16.234135 1.736458
		CHANNELS 3 Zrotation Xrotation Yrotation
		JOINT Chest
		{
			OFFSET 5.808929 32.960201 3.525536
			CHANNELS 3 Zrotation Xrotation Yrotation
			JOINT Neck
			{
				OFFSET -1.232910 4.833984 5.324554
				CHANNELS 3 Zrotation Xrotation Yrotation
				JOINT Head
				{
					OFFSET -2.064414 11.255276 16.058281
					CHANNELS 3 Zrotation Xrotation Yrotation
					End Site
					{
						OFFSET 0.0 5.0 0.0
					}
				}
			}
			JOINT LeftShoulder
			{
				OFFSET 13.891661 1.027679 8.944452
				CHANNELS 3 Zrotation Xrotation Yrotation
				JOINT LeftArm
				{
					OFFSET 0.579774 -3.420258 -2.283227
					CHANNELS 3 Zrotation Xrotation Yrotation
					JOINT LeftForeArm
					{
						OFFSET 7.316554 -26.592875 0.173700
						CHANNELS 3 Zrotation Xrotation Yrotation
						JOINT LeftHand
						{
							OFFSET 6.648290 3.155375 22.482550
							CHANNELS 3 Zrotation Xrotation Yrotation
							End Site
							{
								OFFSET 0.0 5.0 0.0
							}
						}
					}
				}
			}
			JOINT RightShoulder
			{
				OFFSET -14.815012 5.864799 -4.311090
				CHANNELS 3 Zrotation Xrotation Yrotation
				JOINT RightArm
				{
					OFFSET 0.343577 -3.472221 -2.350134
					CHANNELS 3 Zrotation Xrotation Yrotation
					JOINT RightForeArm
					{
						OFFSET -10.522768 -23.890854 -8.527178
						CHANNELS 3 Zrotation Xrotation Yrotation
						JOINT RightHand
						{
							OFFSET -18.224791 11.976790 9.151262
							CHANNELS 3 Zrotation Xrotation Yrotation
							End Site
							{
								OFFSET 0.0 5.0 0.0
							}
						}
					}
				}
			}
		}
	}
	JOINT LeftUpLeg
	{
		OFFSET 7.168579 -1.489258 3.640747
		CHANNELS 3 Zrotation Xrotation Yrotation
		JOINT LeftLeg
		{
			OFFSET -2.761841 -41.381836 -6.483459
			CHANNELS 3 Zrotation Xrotation Yrotation
			JOINT LeftFoot
			{
				OFFSET -2.114746 -38.626015 -8.431443
				CHANNELS 3 Zrotation Xrotation Yrotation
				End Site
				{
					OFFSET 0.0 5.0 0.0
				}
			}
		}
	}
	JOINT RightUpLeg
	{
		OFFSET -7.168579 1.489258 -3.640747
		CHANNELS 3 Zrotation Xrotation Yrotation
		JOINT RightLeg
		{
			OFFSET -5.444336 -40.722656 -8.618164
			CHANNELS 3 Zrotation Xrotation Yrotation
			JOINT RightFoot
			{
				OFFSET -2.843466 -37.694721 -11.417840
				CHANNELS 3 Zrotation Xrotation Yrotation
				End Site
				{
					OFFSET 0.0 5.0 0.0
				}
			}
		}
	}
}
MOTION
Frames: 7
Frame Time: 0.033333
18.286749 81.497108 -566.895020 0.000000 0.000000 -0.000000 -0.000000 0.000000 0.000000 -0.000000 0.000000 0.000000 0.000000 -0.000000 0.000000 -0.000000 0.000000 -0.000000 -0.000000 0.000000 -0.000000 0.000000 0.000000 0.000000 0.000000 0.000000 -0.000000 0.000000 0.000000 -0.000000 -0.000000 0.000000 0.000000 0.000000 0.000000 0.000000 0.000000 0.000000 0.000000 -0.000000 0.000000 0.000000 -0.000000 0.000000 -0.000000 -0.000000 0.000000 -0.000000 0.000000 0.000000 -0.000000 -0.000000 0.000000 -0.000000 -0.000000 0.000000 -0.000000 -0.000000 0.000000 0.000000
18.245214 81.472649 -565.354675 -0.005880 0.146093 0.112466 -0.011339 -0.017590 -0.093669 0.076704 -0.009846 0.123910 0.000007 -0.013992 0.000006 -0.179877 0.006948 -0.025622 -0.468066 -0.817765 -0.366328 0.000000 0.000000 0.000000 0.671431 -0.000001 -0.000005 -0.000005 -1.063101 0.000004 0.345592 0.258830 -0.257041 0.000000 0.000000 -0.000000 -0.223803 0.000002 -0.000003 -0.000003 1.174997 0.000003 0.552786 -0.105670 0.145480 -0.301621 0.000427 0.002951 -0.074281 -0.049678 0.046350 0.133068 0.000501 -0.095026 -0.124139 0.000174 0.002954 0.174514 -0.351380 0.084253
18.235481 81.469490 -565.717529 -0.001804 0.186992 0.510144 0.020349 -0.092072 -0.034600 0.002925 -0.015598 -0.098165 0.000009 0.006993 0.000006 -0.247726 -0.004315 -0.128548 0.098728 -1.557337 -0.376339 0.000000 0.000000 -0.000000 0.783346 0.000005 -0.000001 -0.000000 -0.811308 0.000001 -0.176005 -1.179190 -0.409546 -0.000000 0.000000 0.000000 0.223818 0.000001 0.000001 0.000002 -0.000003 0.000002 0.407148 0.121213 0.142974 -0.099669 0.000141 0.004972 -0.116720 0.365804 -0.047800 0.165158 0.088582 -0.077323 -0.068187 0.000095 0.004973 0.172513 -0.730288 0.155280
18.216251 81.414345 -565.266296 -0.001597 0.203147 0.623628 -0.009883 -0.164424 -0.052510 0.155103 -0.079601 0.164370 0.000010 -0.167856 0.000005 -0.694222 0.081195 -0.510781 0.533301 -1.859322 -0.801735 0.000000 0.000000 0.000000 0.055950 -0.000002 0.000004 -0.000002 -0.587501 0.000003 0.022126 -1.845798 -0.351233 0.000000 -0.000000 -0.000000 0.167861 0.000001 -0.000004 -0.000001 0.223807 -0.000001 0.346878 0.188015 0.124527 0.029280 -0.000038 0.007762 -0.247352 0.302270 -0.139246 0.298069 0.218950 -0.126531 -0.190587 0.000264 0.007764 0.261177 -0.672111 0.184276
18.103582 81.343353 -565.070496 -0.064725 0.272552 0.386590 -0.061824 -0.138220 -0.014572 0.282038 -0.021534 -0.022768 0.000007 -0.045460 0.000002 -0.705791 0.058355 -0.227255 0.787715 -2.182470 -0.845166 0.000000 0.000000 0.000000 -0.223815 -0.000001 -0.000002 -0.000006 -0.391666 0.000003 -0.240677 -2.273912 -0.635907 -0.000000 0.000000 0.000000 0.559524 -0.000002 -0.000001 0.000000 -0.895250 0.000000 0.786743 -0.192299 0.131218 -0.285015 0.000404 0.007380 -0.119943 0.515132 0.086769 0.355860 0.377721 -0.143142 -0.057698 0.000074 0.007382 0.045935 -0.866672 0.150529
18.122816 81.407997 -565.145813 -0.013564 0.221852 0.579184 -0.020370 -0.131412 -0.123536 0.431803 -0.123750 0.065565 0.000003 -0.325229 0.000003 -1.115459 0.352292 -0.655392 0.740478 -1.849596 -1.056317 0.000000 0.000000 -0.000000 0.559527 0.000001 0.000002 -0.000001 -0.643456 0.000005 0.106061 -1.480908 -1.221005 0.000000 0.000000 -0.000000 0.279766 0.000000 0.000000 0.000002 -0.363700 0.000001 0.508980 -0.117205 0.108886 -0.254410 0.000357 0.008088 -0.242377 0.446051 -0.028296 0.278461 0.276889 -0.113898 -0.120643 0.000166 0.008091 -0.056786 -0.767514 0.116855
18.009365 81.282791 -563.823853 -0.048203 0.279240 0.630391 -0.028632 -0.211655 -0.152200 0.247703 -0.190162 0.309713 0.000009 -0.370686 0.000006 -1.445835 0.538243 -0.621427 0.684075 -1.799318 -1.319926 0.000000 0.000000 -0.000000 0.167848 0.000000 -0.000005 -0.000002 -0.391668 0.000002 0.400923 -1.425956 -0.776433 -0.000000 0.000000 -0.000000 -0.111907 -0.000001 -0.000002 -0.000001 0.027972 0.000001 0.404922 0.071546 0.089702 -0.366970 0.000516 0.008746 -0.215138 0.499391 -0.104847 0.315335 0.413269 -0.117776 -0.001742 0.000002 0.008747 -0.076216 -0.885100 0.057945
